<svg xmlns="http://www.w3.org/2000/svg" xmlns:xlink="http://www.w3.org/1999/xlink" viewBox="0 0 287.9 47.9" enable-background="new 0 0 287.9 47.9"><path d="M-42.2 85.6h364.7v97.3h-364.7z"/><defs><path id="a" d="M1.4 1.4h285.1v45.1h-285.1z"/></defs><clipPath id="b"><use xlink:href="#a" overflow="visible"/></clipPath><path clip-path="url(#b)" fill="#fff" d="M34.8 12.1l-7.3 6.2 2.2 9.3-6.7-5.9-8.1 5.2 3.7-9.1-5.6-5.6h7.8l3.2-7.2 2.3 7.1h8.5zm-11.6-9.7c-4.5 1.8-10.4 2.5-17.1 0 0 0 1.5 26.2-4.8 30 0 0 11.6.6 16.7-2.4 5.1-2.9 12.5 3.7 20.8 1.5 5.2-1.4-4.4-21.7 3.9-27 1.6-1.1-13.4-4.5-19.5-2.1"/><path fill="#fff" d="M42.6 2.5l1.3.2-4.9 43.8-1.1-.1z"/><defs><path id="c" d="M1.4 1.4h285.1v45.1h-285.1z"/></defs><clipPath id="d"><use xlink:href="#c" overflow="visible"/></clipPath><path clip-path="url(#d)" fill="#fff" d="M58 4.7h3.9v12.9h-2.5v-10.799999999999999l-2.4 10.8h-2.6l-2.5-10.8v10.799999999999999h-2.5v-12.9h3.9l2.3 10.1 2.4-10.1z"/><path fill="#fff" d="M68.3 12.7h3.3l-1.6-5.1-1.7 5.1zm.1-8h3.1l4.5 12.9h-2.9l-.8-2.6h-4.8l-.9 2.7h-2.8l4.6-13z"/><defs><path id="e" d="M1.4 1.4h285.1v45.1h-285.1z"/></defs><clipPath id="f"><use xlink:href="#e" overflow="visible"/></clipPath><path clip-path="url(#f)" fill="#fff" d="M85.9 8.7c-.2-.9-.7-1.5-1.5-1.8-.4-.2-.9-.3-1.5-.3-1 0-1.9.4-2.6 1.2-.7.8-1 2-1 3.5 0 1.6.4 2.7 1.1 3.4.7.7 1.5 1 2.5 1 .9 0 1.6-.3 2.2-.8.6-.5.9-1.2 1.1-2h-3v-2.2h5.4v6.9h-1.8l-.3-1.6c-.5.6-1 1-1.4 1.3-.7.4-1.6.7-2.6.7-1.7 0-3.1-.6-4.2-1.8-1.1-1.2-1.7-2.8-1.7-4.9 0-2.1.6-3.8 1.7-5 1.2-1.3 2.7-1.9 4.6-1.9 1.6 0 3 .4 4 1.2 1 .8 1.6 1.9 1.7 3.1h-2.7z"/><path fill="#fff" d="M91.5 4.7h2.8l5.1 9v-9h2.5v12.9h-2.6l-5.3-9.1v9.1h-2.5z"/><defs><path id="g" d="M1.4 1.4h285.1v45.1h-285.1z"/></defs><clipPath id="h"><use xlink:href="#g" overflow="visible"/></clipPath><path clip-path="url(#h)" fill="#fff" d="M104.8 4.7h2.7v7.9c0 .9.1 1.5.3 1.9.3.7 1 1.1 2.1 1.1s1.8-.4 2.1-1.1c.2-.4.3-1.1.3-1.9v-7.9h2.7v7.9c0 1.4-.2 2.4-.6 3.2-.8 1.4-2.3 2.1-4.5 2.1s-3.7-.7-4.5-2.1c-.4-.8-.6-1.8-.6-3.2v-7.9zM120.1 13.6c.1.6.2 1 .5 1.3.4.5 1.2.8 2.3.8.6 0 1.2-.1 1.6-.2.8-.3 1.2-.8 1.2-1.5 0-.4-.2-.8-.6-1-.4-.2-1-.4-1.8-.6l-1.4-.3c-1.4-.3-2.3-.6-2.8-1-.9-.6-1.3-1.5-1.3-2.8 0-1.2.4-2.1 1.3-2.9.9-.8 2.1-1.1 3.7-1.1 1.4 0 2.6.4 3.5 1.1 1 .7 1.5 1.8 1.5 3.1h-2.6c0-.8-.4-1.3-1-1.7-.4-.2-1-.3-1.6-.3-.7 0-1.3.1-1.7.4-.4.3-.6.7-.6 1.2s.2.8.6 1c.3.2.8.3 1.7.5l2.3.5c1 .2 1.7.5 2.2.9.8.6 1.2 1.5 1.2 2.6 0 1.2-.5 2.2-1.4 2.9-.9.8-2.2 1.2-3.9 1.2-1.7 0-3-.4-4-1.1-1-.8-1.5-1.8-1.5-3.2h2.6zM138.7 14.5c.6-.8.9-1.9.9-3.4 0-1.4-.3-2.6-.9-3.4-.6-.8-1.5-1.2-2.5-1.2-1.1 0-1.9.4-2.6 1.2-.6.8-1 1.9-1 3.4s.3 2.6 1 3.4c.6.8 1.5 1.2 2.6 1.2 1 0 1.9-.4 2.5-1.2m1.7 2c-1 1-2.4 1.5-4.2 1.5-1.8 0-3.3-.5-4.2-1.5-1.3-1.2-2-3-2-5.3 0-2.4.7-4.1 2-5.3 1-1 2.4-1.5 4.2-1.5 1.8 0 3.3.5 4.2 1.5 1.3 1.2 2 3 2 5.3-.1 2.3-.7 4-2 5.3"/><path fill="#fff" d="M144.7 4.7h2.8l5.2 9v-9h2.5v12.9h-2.7l-5.3-9.1v9.1h-2.5zM49.4 35.2v-12.9h2.7v4.9h5v-4.9h2.7v12.9h-2.7v-5.8h-5v5.8z"/><defs><path id="i" d="M1.4 1.4h285.1v45.1h-285.1z"/></defs><clipPath id="j"><use xlink:href="#i" overflow="visible"/></clipPath><path clip-path="url(#j)" fill="#fff" d="M71 32c.6-.8.9-1.9.9-3.4 0-1.4-.3-2.6-.9-3.4-.6-.8-1.5-1.2-2.5-1.2-1.1 0-1.9.4-2.6 1.2-.6.8-1 1.9-1 3.4s.3 2.6 1 3.4c.6.8 1.5 1.2 2.6 1.2 1 0 1.9-.4 2.5-1.2m1.7 2c-1 1-2.4 1.5-4.2 1.5-1.8 0-3.3-.5-4.2-1.5-1.3-1.2-2-3-2-5.3 0-2.4.7-4.1 2-5.3 1-1 2.4-1.5 4.2-1.5 1.8 0 3.3.5 4.2 1.5 1.3 1.2 2 3 2 5.3-.1 2.3-.7 4.1-2 5.3"/><path fill="#fff" d="M86.4 22.3v2.2h-3.8v10.7h-2.7v-10.7h-3.9v-2.2zM97.9 24.5h-6.8v2.8h6.2v2.2h-6.2v3.3h7.1v2.4h-9.8v-12.9h9.5zM100.7 22.3h2.7v10.5h6.4v2.4h-9.1z"/><defs><path id="k" d="M1.4 1.4h285.1v45.1h-285.1z"/></defs><clipPath id="l"><use xlink:href="#k" overflow="visible"/></clipPath><path clip-path="url(#l)" fill="#fff" d="M113.9 31.2c.1.6.2 1 .5 1.3.4.5 1.2.8 2.3.8.6 0 1.2-.1 1.6-.2.8-.3 1.2-.8 1.2-1.5 0-.4-.2-.8-.6-1-.4-.2-1-.4-1.8-.6l-1.4-.3c-1.4-.3-2.3-.6-2.8-1-.9-.6-1.3-1.5-1.3-2.8 0-1.2.4-2.1 1.3-2.9.9-.8 2.1-1.1 3.7-1.1 1.4 0 2.6.4 3.5 1.1 1 .7 1.5 1.8 1.5 3.1h-2.6c0-.8-.4-1.3-1-1.7-.4-.2-1-.3-1.6-.3-.7 0-1.3.1-1.7.4-.4.3-.6.7-.6 1.2s.2.8.6 1c.3.2.8.3 1.7.5l2.3.5c1 .2 1.7.5 2.2.9.8.6 1.2 1.5 1.2 2.6 0 1.2-.5 2.2-1.4 2.9-.9.8-2.2 1.2-3.9 1.2-1.7 0-3-.4-4-1.2-1-.8-1.5-1.8-1.5-3.2h2.6z"/><path clip-path="url(#l)" stroke="#9F9FA1" fill="none" d="M167.8 1.4v39.6"/><path clip-path="url(#l)" fill="#E87D1E" d="M286.1 19.1c.1-.6-.1-2.3-1.8-3.4-.8-.5-2.1-.7-3.2-.7-3.2 0-4.6 2.1-4.4 4.2.2 1.6 1.2 2.2 1.7 2.4 1.8.6.9.4 2.7.8.9.2 2 .4 2.7.8 1.6 1.1.9 2.6.1 3.3-.5.4-1.2.6-1.9.6-.7.1-1.3 0-1.7-.1-2.3-.4-2.6-2.2-2.5-3h-1.6c0 1 .1 1.9 1 2.9 1.2 1.4 2.5 1.6 4.2 1.7 2.8.1 5.3-1.6 5.2-4.2-.1-1.3-1.1-2.5-2.2-2.9-1.1-.3-2.2-.6-3.2-.9-.9-.2-1.5-.4-2-.6-1.5-.8-1-3.6 2.1-3.6.7 0 1.3 0 2.2.5 1 .6 1.2 1.4 1.2 2.1h1.4zm-21.6-2.3c1 0 2.7.3 2.4 2.5-.2 1.7-1.3 2-2.4 2h-4.2v-4.5h4.2zm-5.9 11.6h1.7v-5.6h4.3c2.8 0 2 2.4 2.1 4 .1.5.1 1 .4 1.7h2v-.5c-.6-.4-.7-1-.7-2.7 0-2.2-.2-2.5-1.5-3.3 1.3-1 1.8-1.6 1.7-3.3-.2-3-2.1-3.3-4.2-3.3h-5.9v13zm-17.5 0h9.4v-1.5h-7.7v-4.5h7.1v-1.5h-7.1v-4.1h7.4v-1.5h-9.1v13.1zm-8.4 0v-13.1h-1.7v10.6l-6.6-10.6h-2v13.1h1.7v-10.5l6.6 10.5h2zm-21.6-2.5l-2.9-10.6h-1.8l-2.9 10.6-2.5-10.6h-1.9l3.3 13.1h1.9l3-10.7 3 10.7h1.9l3.3-13.1h-1.9l-2.5 10.6zm-24.8-9.3c1.2 0 2.4.4 3.2 1.3.9.9 1.5 2.5 1.4 4.1 0 1.6-.6 3.2-1.4 4.1-.8.8-2 1.3-3.2 1.3-1.2 0-2.4-.4-3.2-1.3-.9-.9-1.5-2.5-1.4-4.1 0-1.6.6-3.2 1.4-4.1.9-.9 2.1-1.3 3.2-1.3m0-1.5c-1.8 0-3.4.8-4 1.4-1.7 1.5-2.3 3.7-2.3 5.5 0 1.9.6 4.1 2.3 5.5.6.5 2.2 1.3 4 1.4 1.8 0 3.4-.8 4-1.4 1.7-1.5 2.3-3.7 2.3-5.5 0-1.9-.6-4.1-2.3-5.5-.6-.6-2.1-1.4-4-1.4"/></svg>