<svg xmlns="http://www.w3.org/2000/svg" xmlns:xlink="http://www.w3.org/1999/xlink" viewBox="0 341 612 110" enable-background="new 0 341 612 110"><defs><path id="a" d="M3 348.1h606v95.9h-606z"/></defs><clipPath id="b"><use xlink:href="#a" overflow="visible"/></clipPath><path clip-path="url(#b)" fill="#fff" d="M74 370.8l-15.5 13.2 4.7 19.8-14.2-12.5-17.2 11.1 7.9-19.3-12.1-12.1h16.6l6.8-15.3 4.9 15.1h18.1zm-24.7-20.6c-9.6 3.8-22.1 5.3-36.4 0 0 0 3.2 55.7-10.2 63.8 0 0 24.7 1.3 35.5-5.1 10.8-6.2 26.6 7.9 44.2 3.2 11.1-3-9.4-46.1 8.3-57.4 3.5-2.4-28.4-9.6-41.4-4.5"/><path fill="#fff" d="M90.6 350.4l2.8.4-10.4 93.1-2.3-.2 9.9-93.3z"/><defs><path id="c" d="M3 348.1h606v95.9h-606z"/></defs><clipPath id="d"><use xlink:href="#c" overflow="visible"/></clipPath><path clip-path="url(#d)" fill="#fff" d="M123.3 355.1h8.3v27.4h-5.3v-23l-5.1 23h-5.5l-5.3-23v23h-5.4v-27.4h8.3l4.9 21.5c0-.1 5.1-21.5 5.1-21.5z"/><path fill="#fff" d="M145.2 372.1h7l-3.4-10.8-3.6 10.8zm.2-17h6.6l9.6 27.4h-6.2l-1.7-5.5h-10.2l-1.9 5.7h-6l9.8-27.6z"/><defs><path id="e" d="M3 348.1h606v95.9h-606z"/></defs><clipPath id="f"><use xlink:href="#e" overflow="visible"/></clipPath><path clip-path="url(#f)" fill="#fff" d="M182.6 363.6c-.4-1.9-1.5-3.2-3.2-3.8-.9-.4-1.9-.6-3.2-.6-2.1 0-4 .9-5.5 2.6s-2.1 4.3-2.1 7.4c0 3.4.9 5.7 2.3 7.2s3.2 2.1 5.3 2.1c1.9 0 3.4-.6 4.7-1.7s1.9-2.6 2.3-4.3h-6.4v-4.7h11.5v14.7h-3.8l-.6-3.4c-1.1 1.3-2.1 2.1-3 2.8-1.5.9-3.4 1.5-5.5 1.5-3.6 0-6.6-1.3-8.9-3.8-2.3-2.6-3.6-6-3.6-10.4s1.3-8.1 3.6-10.6c2.6-2.8 5.7-4 9.8-4 3.4 0 6.4.9 8.5 2.6 2.1 1.7 3.4 4 3.6 6.6h-5.8v-.2z"/><path fill="#fff" d="M194.5 355.1h6l10.8 19.1v-19.1h5.3v27.4h-5.5l-11.3-19.3v19.3h-5.3v-27.4z"/><defs><path id="g" d="M3 348.1h606v95.9h-606z"/></defs><clipPath id="h"><use xlink:href="#g" overflow="visible"/></clipPath><path clip-path="url(#h)" fill="#fff" d="M222.8 355.1h5.7v16.8c0 1.9.2 3.2.6 4 .6 1.5 2.1 2.3 4.5 2.3 2.3 0 3.8-.9 4.5-2.3.4-.9.6-2.3.6-4v-16.8h5.7v16.8c0 3-.4 5.1-1.3 6.8-1.7 3-4.9 4.5-9.6 4.5s-7.9-1.5-9.6-4.5c-.9-1.7-1.3-3.8-1.3-6.8.2 0 .2-16.8.2-16.8zm32.5 18.9c.2 1.3.4 2.1 1.1 2.8.9 1.1 2.6 1.7 4.9 1.7 1.3 0 2.6-.2 3.4-.4 1.7-.6 2.6-1.7 2.6-3.2 0-.9-.4-1.7-1.3-2.1-.9-.4-2.1-.9-3.8-1.3l-3-.6c-3-.6-4.9-1.3-6-2.1-1.9-1.3-2.8-3.2-2.8-6 0-2.6.9-4.5 2.8-6.2 1.9-1.7 4.5-2.3 7.9-2.3 3 0 5.5.9 7.4 2.3 2.1 1.5 3.2 3.8 3.2 6.6h-5.5c0-1.7-.9-2.8-2.1-3.6-.9-.4-2.1-.6-3.4-.6-1.5 0-2.8.2-3.6.9-.9.6-1.3 1.5-1.3 2.6s.4 1.7 1.3 2.1c.6.4 1.7.6 3.6 1.1l4.9 1.1c2.1.4 3.6 1.1 4.7 1.9 1.7 1.3 2.6 3.2 2.6 5.5 0 2.6-1.1 4.7-3 6.2-1.9 1.7-4.7 2.6-8.3 2.6-3.6 0-6.4-.9-8.5-2.3-2.1-1.7-3.2-3.8-3.2-6.8h5.5l-.1.1zm39.5 1.9c1.3-1.7 1.9-4 1.9-7.2 0-3-.6-5.5-1.9-7.2-1.3-1.7-3.2-2.6-5.3-2.6-2.3 0-4 .9-5.5 2.6-1.3 1.7-2.1 4-2.1 7.2s.6 5.5 2.1 7.2c1.3 1.7 3.2 2.6 5.5 2.6 2.2 0 4.1-.9 5.3-2.6m3.7 4.3c-2.1 2.1-5.1 3.2-8.9 3.2-3.8 0-7-1.1-8.9-3.2-2.8-2.6-4.3-6.4-4.3-11.3 0-5.1 1.5-8.7 4.3-11.3 2.1-2.1 5.1-3.2 8.9-3.2 3.8 0 7 1.1 8.9 3.2 2.8 2.6 4.3 6.4 4.3 11.3-.3 4.9-1.6 8.5-4.3 11.3"/><path fill="#fff" d="M307.6 355.1h6l11.1 19.1v-19.1h5.3v27.4h-5.7l-11.3-19.3v19.3h-5.3v-27.4zm-202.6 64.8v-27.4h5.7v10.4h10.6v-10.4h5.7v27.4h-5.7v-12.3h-10.6v12.3h-5.7z"/><defs><path id="i" d="M3 348.1h606v95.9h-606z"/></defs><clipPath id="j"><use xlink:href="#i" overflow="visible"/></clipPath><path clip-path="url(#j)" fill="#fff" d="M150.9 413.1c1.3-1.7 1.9-4 1.9-7.2 0-3-.6-5.5-1.9-7.2-1.3-1.7-3.2-2.6-5.3-2.6-2.3 0-4 .9-5.5 2.6-1.3 1.7-2.1 4-2.1 7.2s.6 5.5 2.1 7.2c1.3 1.7 3.2 2.6 5.5 2.6 2.1 0 4.1-.9 5.3-2.6m3.6 4.3c-2.1 2.1-5.1 3.2-8.9 3.2-3.8 0-7-1.1-8.9-3.2-2.8-2.6-4.3-6.4-4.3-11.3 0-5.1 1.5-8.7 4.3-11.3 2.1-2.1 5.1-3.2 8.9-3.2s7 1.1 8.9 3.2c2.8 2.6 4.3 6.4 4.3 11.3-.2 4.9-1.5 8.7-4.3 11.3"/><path fill="#fff" d="M183.7 392.5v4.7h-8.1v22.7h-5.7v-22.7h-8.3v-4.7h22.1zm24.4 4.7h-14.5v6h13.2v4.7h-13.2v7h15.1v5.1h-20.8v-27.4h20.2v4.6zm6-4.7h5.7v22.3h13.6v5.1h-19.3v-27.4z"/><defs><path id="k" d="M3 348.1h606v95.9h-606z"/></defs><clipPath id="l"><use xlink:href="#k" overflow="visible"/></clipPath><path clip-path="url(#l)" fill="#fff" d="M242.1 411.4c.2 1.3.4 2.1 1.1 2.8.9 1.1 2.6 1.7 4.9 1.7 1.3 0 2.6-.2 3.4-.4 1.7-.6 2.6-1.7 2.6-3.2 0-.9-.4-1.7-1.3-2.1-.9-.4-2.1-.9-3.8-1.3l-3-.6c-3-.6-4.9-1.3-6-2.1-1.9-1.3-2.8-3.2-2.8-6 0-2.6.9-4.5 2.8-6.2 1.9-1.7 4.5-2.3 7.9-2.3 3 0 5.5.9 7.4 2.3 2.1 1.5 3.2 3.8 3.2 6.6h-5.5c0-1.7-.9-2.8-2.1-3.6-.9-.4-2.1-.6-3.4-.6-1.5 0-2.8.2-3.6.9-.9.6-1.3 1.5-1.3 2.6s.4 1.7 1.3 2.1c.6.4 1.7.6 3.6 1.1l4.9 1.1c2.1.4 3.6 1.1 4.7 1.9 1.7 1.3 2.6 3.2 2.6 5.5 0 2.6-1.1 4.7-3 6.2-1.9 1.7-4.7 2.6-8.3 2.6s-6.4-.9-8.5-2.6c-2.1-1.7-3.2-3.8-3.2-6.8h5.5l-.1.4z"/><defs><path id="m" d="M3 348.1h606v95.9h-606z"/></defs><clipPath id="n"><use xlink:href="#m" overflow="visible"/></clipPath><path clip-path="url(#n)" stroke="#9F9FA1" d="M356.7 348.1v84.2" fill="none"/><defs><path id="o" d="M3 348.1h606v95.9h-606z"/></defs><clipPath id="p"><use xlink:href="#o" overflow="visible"/></clipPath><path clip-path="url(#p)" fill="#E87D1E" d="M608.2 385.7c.2-1.3-.2-4.9-3.8-7.2-1.7-1.1-4.5-1.5-6.8-1.5-6.8 0-9.8 4.5-9.4 8.9.4 3.4 2.6 4.7 3.6 5.1 3.8 1.3 1.9.9 5.7 1.7 1.9.4 4.3.9 5.7 1.7 3.4 2.3 1.9 5.5.2 7-1.1.9-2.6 1.3-4 1.3-1.5.2-2.8 0-3.6-.2-4.9-.9-5.5-4.7-5.3-6.4h-3.4c0 2.1.2 4 2.1 6.2 2.6 3 5.3 3.4 8.9 3.6 6 .2 11.3-3.4 11.1-8.9-.2-2.8-2.3-5.3-4.7-6.2-2.3-.6-4.7-1.3-6.8-1.9-1.9-.4-3.2-.9-4.3-1.3-3.2-1.7-2.1-7.7 4.5-7.7 1.5 0 2.8 0 4.7 1.1 2.1 1.3 2.6 3 2.6 4.5h3v.2zm-45.9-4.9c2.1 0 5.7.6 5.1 5.3-.4 3.6-2.8 4.3-5.1 4.3h-8.9v-9.6h8.9zm-12.6 24.7h3.6v-11.9h9.1c6 0 4.3 5.1 4.5 8.5.2 1.1.2 2.1.9 3.6h4.3v-1.1c-1.3-.9-1.5-2.1-1.5-5.7 0-4.7-.4-5.3-3.2-7 2.8-2.1 3.8-3.4 3.6-7-.4-6.4-4.5-7-8.9-7h-12.5v27.6h.1zm-37.2 0h20v-3.2h-16.4v-9.6h15.1v-3.2h-15.1v-8.7h15.7v-3.2h-19.3v27.9zm-17.8 0v-27.8h-3.7v22.5l-14-22.5h-4.3v27.8h3.6v-22.3l14 22.3h4.4zm-46-5.4l-6.2-22.5h-3.8l-6.2 22.5-5.3-22.5h-4l7 27.8h4l6.4-22.7 6.4 22.7h4l7-27.8h-4l-5.3 22.5zm-52.7-19.7c2.6 0 5.1.9 6.8 2.8 1.9 1.9 3.2 5.3 3 8.7 0 3.4-1.3 6.8-3 8.7-1.7 1.7-4.3 2.8-6.8 2.8s-5.1-.9-6.8-2.8c-1.9-1.9-3.2-5.3-3-8.7 0-3.4 1.3-6.8 3-8.7 1.9-2 4.5-2.8 6.8-2.8m0-3.2c-3.8 0-7.2 1.7-8.5 3-3.6 3.2-4.9 7.9-4.9 11.7 0 4 1.3 8.7 4.9 11.7 1.3 1.1 4.7 2.8 8.5 3 3.8 0 7.2-1.7 8.5-3 3.6-3.2 4.9-7.9 4.9-11.7 0-4-1.3-8.7-4.9-11.7-1.2-1.3-4.4-3-8.5-3"/></svg>